<?xml version="1.0" encoding="UTF-8" standalone="no"?><!-- Generator: Gravit.io --><svg xmlns="http://www.w3.org/2000/svg" xmlns:xlink="http://www.w3.org/1999/xlink" style="isolation:isolate" viewBox="0 0 2000 1500" width="2000pt" height="1500pt"><defs><clipPath id="_clipPath_zzAJel1uV62mZXslSpcu9fXQB5MUPH43"><rect width="2000" height="1500"/></clipPath></defs><g clip-path="url(#_clipPath_zzAJel1uV62mZXslSpcu9fXQB5MUPH43)"><g><rect x="1075.25" y="1271.339" width="357.75" height="63.661" transform="matrix(1,0,0,1,0,0)" fill="rgb(255,255,255)"/><clipPath id="_clipPath_SQfGwnrLTQV8EN9bR8hJW9NCCxXuk6q7"><rect x="1075.25" y="1271.339" width="357.75" height="63.661" transform="matrix(1,0,0,1,0,0)" fill="rgb(255,255,255)"/></clipPath><g clip-path="url(#_clipPath_SQfGwnrLTQV8EN9bR8hJW9NCCxXuk6q7)"><path d="M 1085.983 730.22 L 1422.267 730.22 C 1428.191 730.22 1433 735.029 1433 740.953 L 1433 1281.827 C 1433 1287.751 1428.191 1292.56 1422.267 1292.56 L 1085.983 1292.56 C 1080.059 1292.56 1075.25 1287.751 1075.25 1281.827 L 1075.25 740.953 C 1075.25 735.029 1080.059 730.22 1085.983 730.22 Z" style="stroke:none;fill:#C9C8CC;stroke-miterlimit:10;"/></g><rect x="1137" y="1109.339" width="214" height="162" transform="matrix(1,0,0,1,0,0)" fill="rgb(225,225,229)"/><path d="M 682.554 363.34 L 1805.446 363.34 C 1822.861 363.34 1837 377.479 1837 394.894 L 1837 1139.34 L 651 1139.34 L 651 394.894 C 651 377.479 665.139 363.34 682.554 363.34 Z" style="stroke:none;fill:#0B0B0B;stroke-miterlimit:10;"/><linearGradient id="_lgradient_1" x1="0" y1="0.5" x2="1" y2="0.5" gradientTransform="matrix(1132.461,0,0,716.308,677.769,390.369)" gradientUnits="userSpaceOnUse"><stop offset="0%" stop-opacity="1" style="stop-color:rgb(190,216,255)"/><stop offset="100%" stop-opacity="1" style="stop-color:rgb(234,197,255)"/></linearGradient><rect x="677.769" y="390.369" width="1132.461" height="716.308" transform="matrix(1,0,0,1,0,0)" fill="url(#_lgradient_1)"/></g><g><path d="M 181.983 709 L 966.517 709 C 978.914 709 988.98 719.066 988.98 731.464 L 988.98 1271.34 L 159.52 1271.34 L 159.52 731.464 C 159.52 719.066 169.586 709 181.983 709 Z" style="stroke:none;fill:#0B0B0B;stroke-miterlimit:10;"/><rect x="178.237" y="728.588" width="792.025" height="519.082" transform="matrix(1,0,0,1,0,0)" fill="rgb(235,235,235)"/><g><rect x="178.237" y="728.588" width="792.025" height="16.412" transform="matrix(1,0,0,1,0,0)" fill="rgb(213,213,213)"/><circle vector-effect="non-scaling-stroke" cx="942" cy="736.7940026075619" r="3" fill="rgb(255,96,87)"/><circle vector-effect="non-scaling-stroke" cx="950.0000000000001" cy="736.7940026075619" r="3" fill="rgb(255,190,45)"/><circle vector-effect="non-scaling-stroke" cx="958.0000000000001" cy="736.7940026075619" r="3" fill="rgb(39,201,62)"/><path d=" M 186.816 736.728 L 186.816 736.728 Q 187.304 736.848 187.572 737.204 L 187.572 737.204 L 187.572 737.204 Q 187.84 737.56 187.84 738.088 L 187.84 738.088 L 187.84 738.088 Q 187.84 738.832 187.356 739.224 L 187.356 739.224 L 187.356 739.224 Q 186.872 739.616 185.984 739.616 L 185.984 739.616 L 183.728 739.616 L 183.728 733.976 L 185.904 733.976 L 185.904 733.976 Q 186.768 733.976 187.24 734.36 L 187.24 734.36 L 187.24 734.36 Q 187.712 734.744 187.712 735.456 L 187.712 735.456 L 187.712 735.456 Q 187.712 735.912 187.476 736.24 L 187.476 736.24 L 187.476 736.24 Q 187.24 736.568 186.816 736.728 L 186.816 736.728 L 186.816 736.728 Z  M 184.216 734.4 L 184.216 736.536 L 185.832 736.536 L 185.832 736.536 Q 186.512 736.536 186.864 736.256 L 186.864 736.256 L 186.864 736.256 Q 187.216 735.976 187.216 735.448 L 187.216 735.448 L 187.216 735.448 Q 187.216 734.4 185.832 734.4 L 185.832 734.4 L 184.216 734.4 L 184.216 734.4 Z  M 185.952 739.192 L 185.952 739.192 Q 186.664 739.192 187.004 738.924 L 187.004 738.924 L 187.004 738.924 Q 187.344 738.656 187.344 738.104 L 187.344 738.104 L 187.344 738.104 Q 187.344 736.968 185.952 736.968 L 185.952 736.968 L 184.216 736.968 L 184.216 739.192 L 185.952 739.192 L 185.952 739.192 Z  M 190.992 735.64 L 191.032 736.064 L 190.688 736.096 L 190.688 736.096 Q 190.056 736.16 189.772 736.504 L 189.772 736.504 L 189.772 736.504 Q 189.488 736.848 189.488 737.344 L 189.488 737.344 L 189.488 739.616 L 189 739.616 L 189 735.736 L 189.48 735.736 L 189.48 736.416 L 189.48 736.416 Q 189.656 736.056 189.98 735.876 L 189.98 735.876 L 189.98 735.876 Q 190.304 735.696 190.784 735.656 L 190.784 735.656 L 190.992 735.64 L 190.992 735.64 Z  M 193.176 739.672 L 193.176 739.672 Q 192.64 739.672 192.236 739.424 L 192.236 739.424 L 192.236 739.424 Q 191.832 739.176 191.608 738.72 L 191.608 738.72 L 191.608 738.72 Q 191.384 738.264 191.384 737.656 L 191.384 737.656 L 191.384 737.656 Q 191.384 737.048 191.608 736.592 L 191.608 736.592 L 191.608 736.592 Q 191.832 736.136 192.236 735.888 L 192.236 735.888 L 192.236 735.888 Q 192.64 735.64 193.176 735.64 L 193.176 735.64 L 193.176 735.64 Q 193.704 735.64 194.112 735.888 L 194.112 735.888 L 194.112 735.888 Q 194.52 736.136 194.74 736.592 L 194.74 736.592 L 194.74 736.592 Q 194.96 737.048 194.96 737.656 L 194.96 737.656 L 194.96 737.656 Q 194.96 738.264 194.74 738.72 L 194.74 738.72 L 194.74 738.72 Q 194.52 739.176 194.112 739.424 L 194.112 739.424 L 194.112 739.424 Q 193.704 739.672 193.176 739.672 L 193.176 739.672 L 193.176 739.672 Z  M 193.168 739.24 L 193.168 739.24 Q 193.784 739.24 194.12 738.832 L 194.12 738.832 L 194.12 738.832 Q 194.456 738.424 194.456 737.656 L 194.456 737.656 L 194.456 737.656 Q 194.456 736.904 194.116 736.484 L 194.116 736.484 L 194.116 736.484 Q 193.776 736.064 193.176 736.064 L 193.176 736.064 L 193.176 736.064 Q 192.568 736.064 192.232 736.484 L 192.232 736.484 L 192.232 736.484 Q 191.896 736.904 191.896 737.656 L 191.896 737.656 L 191.896 737.656 Q 191.896 738.424 192.224 738.832 L 192.224 738.832 L 192.224 738.832 Q 192.552 739.24 193.168 739.24 L 193.168 739.24 L 193.168 739.24 Z  M 200.08 739.04 L 201.24 735.736 L 201.744 735.736 L 200.328 739.616 L 199.824 739.616 L 198.656 736.368 L 197.48 739.616 L 196.976 739.616 L 195.568 735.736 L 196.088 735.736 L 197.24 739.04 L 198.432 735.736 L 198.912 735.736 L 200.08 739.04 L 200.08 739.04 Z  M 203.824 739.672 L 203.824 739.672 Q 202.904 739.672 202.32 739.152 L 202.32 739.152 L 202.504 738.776 L 202.504 738.776 Q 202.816 739.032 203.128 739.14 L 203.128 739.14 L 203.128 739.14 Q 203.44 739.248 203.848 739.248 L 203.848 739.248 L 203.848 739.248 Q 204.32 739.248 204.572 739.08 L 204.572 739.08 L 204.572 739.08 Q 204.824 738.912 204.824 738.608 L 204.824 738.608 L 204.824 738.608 Q 204.824 738.352 204.656 738.196 L 204.656 738.196 L 204.656 738.196 Q 204.488 738.04 204.12 737.96 L 204.12 737.96 L 203.464 737.808 L 203.464 737.808 Q 202.992 737.696 202.724 737.42 L 202.724 737.42 L 202.724 737.42 Q 202.456 737.144 202.456 736.768 L 202.456 736.768 L 202.456 736.768 Q 202.456 736.264 202.848 735.952 L 202.848 735.952 L 202.848 735.952 Q 203.24 735.64 203.896 735.64 L 203.896 735.64 L 203.896 735.64 Q 204.304 735.64 204.66 735.772 L 204.66 735.772 L 204.66 735.772 Q 205.016 735.904 205.248 736.152 L 205.248 736.152 L 205.064 736.528 L 205.064 736.528 Q 204.792 736.288 204.508 736.176 L 204.508 736.176 L 204.508 736.176 Q 204.224 736.064 203.896 736.064 L 203.896 736.064 L 203.896 736.064 Q 203.456 736.064 203.208 736.24 L 203.208 736.24 L 203.208 736.24 Q 202.96 736.416 202.96 736.728 L 202.96 736.728 L 202.96 736.728 Q 202.96 736.984 203.116 737.144 L 203.116 737.144 L 203.116 737.144 Q 203.272 737.304 203.6 737.384 L 203.6 737.384 L 204.264 737.544 L 204.264 737.544 Q 205.32 737.784 205.32 738.584 L 205.32 738.584 L 205.32 738.584 Q 205.32 739.08 204.916 739.376 L 204.916 739.376 L 204.916 739.376 Q 204.512 739.672 203.824 739.672 L 203.824 739.672 L 203.824 739.672 Z  M 209.576 737.52 L 209.576 737.736 L 206.64 737.736 L 206.64 737.736 Q 206.664 738.464 207.024 738.852 L 207.024 738.852 L 207.024 738.852 Q 207.384 739.24 208.048 739.24 L 208.048 739.24 L 208.048 739.24 Q 208.752 739.24 209.32 738.76 L 209.32 738.76 L 209.512 739.144 L 209.512 739.144 Q 209.256 739.384 208.86 739.528 L 208.86 739.528 L 208.86 739.528 Q 208.464 739.672 208.048 739.672 L 208.048 739.672 L 208.048 739.672 Q 207.16 739.672 206.648 739.136 L 206.648 739.136 L 206.648 739.136 Q 206.136 738.6 206.136 737.664 L 206.136 737.664 L 206.136 737.664 Q 206.136 737.064 206.364 736.604 L 206.364 736.604 L 206.364 736.604 Q 206.592 736.144 207.004 735.892 L 207.004 735.892 L 207.004 735.892 Q 207.416 735.64 207.952 735.64 L 207.952 735.64 L 207.952 735.64 Q 208.712 735.64 209.144 736.136 L 209.144 736.136 L 209.144 736.136 Q 209.576 736.632 209.576 737.52 L 209.576 737.52 L 209.576 737.52 Z  M 207.952 736.04 L 207.952 736.04 Q 207.392 736.04 207.056 736.392 L 207.056 736.392 L 207.056 736.392 Q 206.72 736.744 206.656 737.376 L 206.656 737.376 L 209.128 737.376 L 209.128 737.376 Q 209.112 736.736 208.808 736.388 L 208.808 736.388 L 208.808 736.388 Q 208.504 736.04 207.952 736.04 L 207.952 736.04 L 207.952 736.04 Z  M 212.584 735.64 L 212.624 736.064 L 212.28 736.096 L 212.28 736.096 Q 211.648 736.16 211.364 736.504 L 211.364 736.504 L 211.364 736.504 Q 211.08 736.848 211.08 737.344 L 211.08 737.344 L 211.08 739.616 L 210.592 739.616 L 210.592 735.736 L 211.072 735.736 L 211.072 736.416 L 211.072 736.416 Q 211.248 736.056 211.572 735.876 L 211.572 735.876 L 211.572 735.876 Q 211.896 735.696 212.376 735.656 L 212.376 735.656 L 212.584 735.64 L 212.584 735.64 Z " fill="rgb(113,113,113)"/></g><rect x="100.5" y="1271.339" width="947.5" height="63.661" transform="matrix(1,0,0,1,0,0)" fill="rgb(255,255,255)"/><clipPath id="_clipPath_q1dMTX97D962LCD7kdYbQFJaL3jRXIhi"><rect x="100.5" y="1271.339" width="947.5" height="63.661" transform="matrix(1,0,0,1,0,0)" fill="rgb(255,255,255)"/></clipPath><g clip-path="url(#_clipPath_q1dMTX97D962LCD7kdYbQFJaL3jRXIhi)"><path d="M 111.747 730.22 L 1036.753 730.22 C 1042.96 730.22 1048 735.26 1048 741.467 L 1048 1281.313 C 1048 1287.52 1042.96 1292.56 1036.753 1292.56 L 111.747 1292.56 C 105.54 1292.56 100.5 1287.52 100.5 1281.313 L 100.5 741.467 C 100.5 735.26 105.54 730.22 111.747 730.22 Z" style="stroke:none;fill:#C9C8CC;stroke-miterlimit:10;"/></g><g opacity="0.26"><path d=" M 291.375 812.279 L 857.125 812.279 L 857.125 818.112 L 291.375 818.112 L 291.375 812.279 L 291.375 812.279 L 291.375 812.279 L 291.375 812.279 L 291.375 812.279 L 291.375 812.279 L 291.375 812.279 L 291.375 812.279 L 291.375 812.279 L 291.375 812.279 L 291.375 812.279 L 291.375 812.279 L 291.375 812.279 L 291.375 812.279 Z  M 291.375 837.275 L 857.125 837.275 L 857.125 843.108 L 291.375 843.108 L 291.375 837.275 L 291.375 837.275 L 291.375 837.275 L 291.375 837.275 L 291.375 837.275 L 291.375 837.275 L 291.375 837.275 L 291.375 837.275 L 291.375 837.275 L 291.375 837.275 L 291.375 837.275 L 291.375 837.275 L 291.375 837.275 L 291.375 837.275 Z  M 291.375 862.272 L 857.125 862.272 L 857.125 868.104 L 291.375 868.104 L 291.375 862.272 L 291.375 862.272 L 291.375 862.272 L 291.375 862.272 L 291.375 862.272 L 291.375 862.272 L 291.375 862.272 L 291.375 862.272 L 291.375 862.272 L 291.375 862.272 L 291.375 862.272 L 291.375 862.272 L 291.375 862.272 Z  M 291.375 887.268 L 857.125 887.268 L 857.125 893.1 L 291.375 893.1 L 291.375 887.268 L 291.375 887.268 L 291.375 887.268 L 291.375 887.268 L 291.375 887.268 L 291.375 887.268 L 291.375 887.268 L 291.375 887.268 L 291.375 887.268 L 291.375 887.268 L 291.375 887.268 L 291.375 887.268 Z  M 291.375 912.264 L 857.125 912.264 L 857.125 918.097 L 291.375 918.097 L 291.375 912.264 L 291.375 912.264 L 291.375 912.264 L 291.375 912.264 L 291.375 912.264 L 291.375 912.264 L 291.375 912.264 L 291.375 912.264 L 291.375 912.264 L 291.375 912.264 L 291.375 912.264 Z  M 291.375 937.261 L 857.125 937.261 L 857.125 943.093 L 291.375 943.093 L 291.375 937.261 L 291.375 937.261 L 291.375 937.261 L 291.375 937.261 L 291.375 937.261 L 291.375 937.261 L 291.375 937.261 L 291.375 937.261 L 291.375 937.261 L 291.375 937.261 Z  M 291.375 962.257 L 857.125 962.257 L 857.125 968.089 L 291.375 968.089 L 291.375 962.257 L 291.375 962.257 L 291.375 962.257 L 291.375 962.257 L 291.375 962.257 L 291.375 962.257 L 291.375 962.257 L 291.375 962.257 L 291.375 962.257 Z  M 291.375 987.253 L 857.125 987.253 L 857.125 993.086 L 291.375 993.086 L 291.375 987.253 L 291.375 987.253 L 291.375 987.253 L 291.375 987.253 L 291.375 987.253 L 291.375 987.253 L 291.375 987.253 L 291.375 987.253 Z  M 291.375 1012.25 L 857.125 1012.25 L 857.125 1018.082 L 291.375 1018.082 L 291.375 1012.25 L 291.375 1012.25 L 291.375 1012.25 L 291.375 1012.25 L 291.375 1012.25 L 291.375 1012.25 L 291.375 1012.25 Z  M 291.375 1037.246 L 857.125 1037.246 L 857.125 1043.078 L 291.375 1043.078 L 291.375 1037.246 L 291.375 1037.246 L 291.375 1037.246 L 291.375 1037.246 L 291.375 1037.246 L 291.375 1037.246 Z  M 291.375 1062.242 L 857.125 1062.242 L 857.125 1068.075 L 291.375 1068.075 L 291.375 1062.242 L 291.375 1062.242 L 291.375 1062.242 L 291.375 1062.242 L 291.375 1062.242 Z  M 291.375 1087.239 L 857.125 1087.239 L 857.125 1093.071 L 291.375 1093.071 L 291.375 1087.239 L 291.375 1087.239 L 291.375 1087.239 L 291.375 1087.239 Z  M 291.375 1112.235 L 857.125 1112.235 L 857.125 1118.067 L 291.375 1118.067 L 291.375 1112.235 L 291.375 1112.235 L 291.375 1112.235 Z  M 291.375 1137.231 L 857.125 1137.231 L 857.125 1143.064 L 291.375 1143.064 L 291.375 1137.231 L 291.375 1137.231 Z  M 291.375 1162.227 L 857.125 1162.227 L 857.125 1168.06 L 291.375 1168.06 L 291.375 1162.227 Z " fill-rule="evenodd" fill="rgb(206,206,206)"/></g><g><rect x="269.125" y="766" width="610.25" height="29" transform="matrix(1,0,0,1,0,0)" fill="rgb(213,213,213)"/><g><mask id="_mask_SB1ok3f6gGrtAN7dvmXeyzrlW7d6nWUC"><circle vector-effect="non-scaling-stroke" cx="285.0424158421906" cy="778.3200611765692" r="3.555290668756413" fill="white" stroke="none"/></mask><circle vector-effect="non-scaling-stroke" cx="285.0424158421906" cy="778.3200611765692" r="3.555290668756413" fill="rgb(213,213,213)"/><circle vector-effect="non-scaling-stroke" cx="285.0424158421906" cy="778.3200611765692" r="3.555290668756413" fill="rgb(213,213,213)" mask="url(#_mask_SB1ok3f6gGrtAN7dvmXeyzrlW7d6nWUC)" stroke-width="2" stroke="rgb(113,113,113)" stroke-linejoin="miter" stroke-linecap="square" stroke-miterlimit="3"/><rect x="281.085" y="779.04" width="7.915" height="7.196" transform="matrix(1,0,0,1,0,0)" fill="rgb(113,113,113)"/></g><path d=" M 379.61 783.944 L 379.61 783.944 Q 378.92 783.944 378.405 783.634 L 378.405 783.634 L 378.405 783.634 Q 377.89 783.324 377.61 782.754 L 377.61 782.754 L 377.61 782.754 Q 377.33 782.184 377.33 781.444 L 377.33 781.444 L 377.33 781.444 Q 377.33 780.694 377.615 780.114 L 377.615 780.114 L 377.615 780.114 Q 377.9 779.534 378.42 779.219 L 378.42 779.219 L 378.42 779.219 Q 378.94 778.904 379.64 778.904 L 379.64 778.904 L 379.64 778.904 Q 380.13 778.904 380.585 779.074 L 380.585 779.074 L 380.585 779.074 Q 381.04 779.244 381.32 779.544 L 381.32 779.544 L 381.09 780.024 L 381.09 780.024 Q 380.72 779.714 380.375 779.574 L 380.375 779.574 L 380.375 779.574 Q 380.03 779.434 379.66 779.434 L 379.66 779.434 L 379.66 779.434 Q 378.88 779.434 378.425 779.969 L 378.425 779.969 L 378.425 779.969 Q 377.97 780.504 377.97 781.444 L 377.97 781.444 L 377.97 781.444 Q 377.97 782.374 378.42 782.889 L 378.42 782.889 L 378.42 782.889 Q 378.87 783.404 379.65 783.404 L 379.65 783.404 L 379.65 783.404 Q 380.02 783.404 380.365 783.264 L 380.365 783.264 L 380.365 783.264 Q 380.71 783.124 381.09 782.824 L 381.09 782.824 L 381.32 783.294 L 381.32 783.294 Q 381.02 783.594 380.56 783.769 L 380.56 783.769 L 380.56 783.769 Q 380.1 783.944 379.61 783.944 L 379.61 783.944 L 379.61 783.944 Z  M 384.32 783.944 L 384.32 783.944 Q 383.65 783.944 383.145 783.634 L 383.145 783.634 L 383.145 783.634 Q 382.64 783.324 382.36 782.754 L 382.36 782.754 L 382.36 782.754 Q 382.08 782.184 382.08 781.424 L 382.08 781.424 L 382.08 781.424 Q 382.08 780.664 382.36 780.094 L 382.36 780.094 L 382.36 780.094 Q 382.64 779.524 383.145 779.214 L 383.145 779.214 L 383.145 779.214 Q 383.65 778.904 384.32 778.904 L 384.32 778.904 L 384.32 778.904 Q 384.98 778.904 385.49 779.214 L 385.49 779.214 L 385.49 779.214 Q 386 779.524 386.275 780.094 L 386.275 780.094 L 386.275 780.094 Q 386.55 780.664 386.55 781.424 L 386.55 781.424 L 386.55 781.424 Q 386.55 782.184 386.275 782.754 L 386.275 782.754 L 386.275 782.754 Q 386 783.324 385.49 783.634 L 385.49 783.634 L 385.49 783.634 Q 384.98 783.944 384.32 783.944 L 384.32 783.944 L 384.32 783.944 Z  M 384.31 783.404 L 384.31 783.404 Q 385.08 783.404 385.5 782.894 L 385.5 782.894 L 385.5 782.894 Q 385.92 782.384 385.92 781.424 L 385.92 781.424 L 385.92 781.424 Q 385.92 780.484 385.495 779.959 L 385.495 779.959 L 385.495 779.959 Q 385.07 779.434 384.32 779.434 L 384.32 779.434 L 384.32 779.434 Q 383.56 779.434 383.14 779.959 L 383.14 779.959 L 383.14 779.959 Q 382.72 780.484 382.72 781.424 L 382.72 781.424 L 382.72 781.424 Q 382.72 782.384 383.13 782.894 L 383.13 782.894 L 383.13 782.894 Q 383.54 783.404 384.31 783.404 L 384.31 783.404 L 384.31 783.404 Z  M 393.08 778.904 L 393.08 778.904 Q 394.69 778.904 394.69 780.784 L 394.69 780.784 L 394.69 783.874 L 394.08 783.874 L 394.08 780.824 L 394.08 780.824 Q 394.08 780.094 393.82 779.769 L 393.82 779.769 L 393.82 779.769 Q 393.56 779.444 392.99 779.444 L 392.99 779.444 L 392.99 779.444 Q 392.34 779.444 391.955 779.884 L 391.955 779.884 L 391.955 779.884 Q 391.57 780.324 391.57 781.074 L 391.57 781.074 L 391.57 783.874 L 390.96 783.874 L 390.96 780.824 L 390.96 780.824 Q 390.96 780.094 390.7 779.769 L 390.7 779.769 L 390.7 779.769 Q 390.44 779.444 389.87 779.444 L 389.87 779.444 L 389.87 779.444 Q 389.22 779.444 388.835 779.884 L 388.835 779.884 L 388.835 779.884 Q 388.45 780.324 388.45 781.074 L 388.45 781.074 L 388.45 783.874 L 387.84 783.874 L 387.84 779.024 L 388.44 779.024 L 388.44 779.824 L 388.44 779.824 Q 388.65 779.374 389.045 779.139 L 389.045 779.139 L 389.045 779.139 Q 389.44 778.904 389.96 778.904 L 389.96 778.904 L 389.96 778.904 Q 391.13 778.904 391.45 779.864 L 391.45 779.864 L 391.45 779.864 Q 391.66 779.414 392.09 779.159 L 392.09 779.159 L 392.09 779.159 Q 392.52 778.904 393.08 778.904 L 393.08 778.904 L 393.08 778.904 Z  M 325.82 776.564 L 323.28 784.484 L 322.75 784.304 L 325.28 776.384 L 325.82 776.564 L 325.82 776.564 Z  M 328.1 776.564 L 325.56 784.484 L 325.03 784.304 L 327.56 776.384 L 328.1 776.564 L 328.1 776.564 Z  M 330.63 778.904 L 330.63 778.904 Q 331.51 778.904 331.945 779.364 L 331.945 779.364 L 331.945 779.364 Q 332.38 779.824 332.38 780.754 L 332.38 780.754 L 332.38 783.874 L 331.78 783.874 L 331.78 783.004 L 331.78 783.004 Q 331.57 783.454 331.17 783.699 L 331.17 783.699 L 331.17 783.699 Q 330.77 783.944 330.25 783.944 L 330.25 783.944 L 330.25 783.944 Q 329.78 783.944 329.39 783.754 L 329.39 783.754 L 329.39 783.754 Q 329 783.564 328.775 783.224 L 328.775 783.224 L 328.775 783.224 Q 328.55 782.884 328.55 782.474 L 328.55 782.474 L 328.55 782.474 Q 328.55 781.934 328.83 781.634 L 328.83 781.634 L 328.83 781.634 Q 329.11 781.334 329.76 781.204 L 329.76 781.204 L 329.76 781.204 Q 330.41 781.074 331.57 781.074 L 331.57 781.074 L 331.78 781.074 L 331.78 780.704 L 331.78 780.704 Q 331.78 780.044 331.51 779.739 L 331.51 779.739 L 331.51 779.739 Q 331.24 779.434 330.66 779.434 L 330.66 779.434 L 330.66 779.434 Q 330.22 779.434 329.815 779.559 L 329.815 779.559 L 329.815 779.559 Q 329.41 779.684 328.98 779.964 L 328.98 779.964 L 328.75 779.494 L 328.75 779.494 Q 329.12 779.224 329.63 779.064 L 329.63 779.064 L 329.63 779.064 Q 330.14 778.904 330.63 778.904 L 330.63 778.904 L 330.63 778.904 Z  M 330.3 783.414 L 330.3 783.414 Q 330.95 783.414 331.365 782.974 L 331.365 782.974 L 331.365 782.974 Q 331.78 782.534 331.78 781.854 L 331.78 781.854 L 331.78 781.524 L 331.59 781.524 L 331.59 781.524 Q 330.63 781.524 330.12 781.604 L 330.12 781.604 L 330.12 781.604 Q 329.61 781.684 329.4 781.879 L 329.4 781.879 L 329.4 781.879 Q 329.19 782.074 329.19 782.444 L 329.19 782.444 L 329.19 782.444 Q 329.19 782.864 329.51 783.139 L 329.51 783.139 L 329.51 783.139 Q 329.83 783.414 330.3 783.414 L 330.3 783.414 L 330.3 783.414 Z  M 335.55 783.944 L 335.55 783.944 Q 334.4 783.944 333.67 783.294 L 333.67 783.294 L 333.9 782.824 L 333.9 782.824 Q 334.29 783.144 334.68 783.279 L 334.68 783.279 L 334.68 783.279 Q 335.07 783.414 335.58 783.414 L 335.58 783.414 L 335.58 783.414 Q 336.17 783.414 336.485 783.204 L 336.485 783.204 L 336.485 783.204 Q 336.8 782.994 336.8 782.614 L 336.8 782.614 L 336.8 782.614 Q 336.8 782.294 336.59 782.099 L 336.59 782.099 L 336.59 782.099 Q 336.38 781.904 335.92 781.804 L 335.92 781.804 L 335.1 781.614 L 335.1 781.614 Q 334.51 781.474 334.175 781.129 L 334.175 781.129 L 334.175 781.129 Q 333.84 780.784 333.84 780.314 L 333.84 780.314 L 333.84 780.314 Q 333.84 779.684 334.33 779.294 L 334.33 779.294 L 334.33 779.294 Q 334.82 778.904 335.64 778.904 L 335.64 778.904 L 335.64 778.904 Q 336.15 778.904 336.595 779.069 L 336.595 779.069 L 336.595 779.069 Q 337.04 779.234 337.33 779.544 L 337.33 779.544 L 337.1 780.014 L 337.1 780.014 Q 336.76 779.714 336.405 779.574 L 336.405 779.574 L 336.405 779.574 Q 336.05 779.434 335.64 779.434 L 335.64 779.434 L 335.64 779.434 Q 335.09 779.434 334.78 779.654 L 334.78 779.654 L 334.78 779.654 Q 334.47 779.874 334.47 780.264 L 334.47 780.264 L 334.47 780.264 Q 334.47 780.584 334.665 780.784 L 334.665 780.784 L 334.665 780.784 Q 334.86 780.984 335.27 781.084 L 335.27 781.084 L 336.1 781.284 L 336.1 781.284 Q 337.42 781.584 337.42 782.584 L 337.42 782.584 L 337.42 782.584 Q 337.42 783.204 336.915 783.574 L 336.915 783.574 L 336.915 783.574 Q 336.41 783.944 335.55 783.944 L 335.55 783.944 L 335.55 783.944 Z  M 340.67 783.424 L 340.67 783.424 Q 340.89 783.424 341.1 783.394 L 341.1 783.394 L 341.07 783.904 L 341.07 783.904 Q 340.85 783.934 340.6 783.934 L 340.6 783.934 L 340.6 783.934 Q 339.78 783.934 339.36 783.489 L 339.36 783.489 L 339.36 783.489 Q 338.94 783.044 338.94 782.274 L 338.94 782.274 L 338.94 779.514 L 337.98 779.514 L 337.98 779.024 L 338.94 779.024 L 338.94 777.524 L 339.55 777.524 L 339.55 779.024 L 340.97 779.024 L 340.97 779.514 L 339.55 779.514 L 339.55 782.194 L 339.55 782.194 Q 339.55 782.804 339.835 783.114 L 339.835 783.114 L 339.835 783.114 Q 340.12 783.424 340.67 783.424 L 340.67 783.424 L 340.67 783.424 Z  M 343.9 783.944 L 343.9 783.944 Q 343.23 783.944 342.725 783.634 L 342.725 783.634 L 342.725 783.634 Q 342.22 783.324 341.94 782.754 L 341.94 782.754 L 341.94 782.754 Q 341.66 782.184 341.66 781.424 L 341.66 781.424 L 341.66 781.424 Q 341.66 780.664 341.94 780.094 L 341.94 780.094 L 341.94 780.094 Q 342.22 779.524 342.725 779.214 L 342.725 779.214 L 342.725 779.214 Q 343.23 778.904 343.9 778.904 L 343.9 778.904 L 343.9 778.904 Q 344.56 778.904 345.07 779.214 L 345.07 779.214 L 345.07 779.214 Q 345.58 779.524 345.855 780.094 L 345.855 780.094 L 345.855 780.094 Q 346.13 780.664 346.13 781.424 L 346.13 781.424 L 346.13 781.424 Q 346.13 782.184 345.855 782.754 L 345.855 782.754 L 345.855 782.754 Q 345.58 783.324 345.07 783.634 L 345.07 783.634 L 345.07 783.634 Q 344.56 783.944 343.9 783.944 L 343.9 783.944 L 343.9 783.944 Z  M 343.89 783.404 L 343.89 783.404 Q 344.66 783.404 345.08 782.894 L 345.08 782.894 L 345.08 782.894 Q 345.5 782.384 345.5 781.424 L 345.5 781.424 L 345.5 781.424 Q 345.5 780.484 345.075 779.959 L 345.075 779.959 L 345.075 779.959 Q 344.65 779.434 343.9 779.434 L 343.9 779.434 L 343.9 779.434 Q 343.14 779.434 342.72 779.959 L 342.72 779.959 L 342.72 779.959 Q 342.3 780.484 342.3 781.424 L 342.3 781.424 L 342.3 781.424 Q 342.3 782.384 342.71 782.894 L 342.71 782.894 L 342.71 782.894 Q 343.12 783.404 343.89 783.404 L 343.89 783.404 L 343.89 783.404 Z  M 348.71 781.354 L 351.5 783.874 L 350.68 783.874 L 348.03 781.514 L 348.03 783.874 L 347.42 783.874 L 347.42 776.824 L 348.03 776.824 L 348.03 781.264 L 350.44 779.024 L 351.23 779.024 L 348.71 781.354 L 348.71 781.354 Z  M 354.72 781.474 L 352 781.474 L 352 780.954 L 354.72 780.954 L 354.72 781.474 L 354.72 781.474 Z  M 358.55 778.904 L 358.55 778.904 Q 359.19 778.904 359.68 779.214 L 359.68 779.214 L 359.68 779.214 Q 360.17 779.524 360.44 780.089 L 360.44 780.089 L 360.44 780.089 Q 360.71 780.654 360.71 781.404 L 360.71 781.404 L 360.71 781.404 Q 360.71 782.164 360.44 782.739 L 360.44 782.739 L 360.44 782.739 Q 360.17 783.314 359.68 783.629 L 359.68 783.629 L 359.68 783.629 Q 359.19 783.944 358.55 783.944 L 358.55 783.944 L 358.55 783.944 Q 357.96 783.944 357.53 783.689 L 357.53 783.689 L 357.53 783.689 Q 357.1 783.434 356.88 782.944 L 356.88 782.944 L 356.88 783.874 L 356.27 783.874 L 356.27 776.824 L 356.88 776.824 L 356.88 779.904 L 356.88 779.904 Q 357.1 779.414 357.53 779.159 L 357.53 779.159 L 357.53 779.159 Q 357.96 778.904 358.55 778.904 L 358.55 778.904 L 358.55 778.904 Z  M 358.47 783.404 L 358.47 783.404 Q 359.23 783.404 359.655 782.874 L 359.655 782.874 L 359.655 782.874 Q 360.08 782.344 360.08 781.404 L 360.08 781.404 L 360.08 781.404 Q 360.08 780.464 359.655 779.949 L 359.655 779.949 L 359.655 779.949 Q 359.23 779.434 358.46 779.434 L 358.46 779.434 L 358.46 779.434 Q 357.7 779.434 357.29 779.954 L 357.29 779.954 L 357.29 779.954 Q 356.88 780.474 356.88 781.424 L 356.88 781.424 L 356.88 781.424 Q 356.88 782.374 357.295 782.889 L 357.295 782.889 L 357.295 782.889 Q 357.71 783.404 358.47 783.404 L 358.47 783.404 L 358.47 783.404 Z  M 362.61 783.874 L 362 783.874 L 362 776.824 L 362.61 776.824 L 362.61 783.874 L 362.61 783.874 Z  M 366.15 783.944 L 366.15 783.944 Q 365.48 783.944 364.975 783.634 L 364.975 783.634 L 364.975 783.634 Q 364.47 783.324 364.19 782.754 L 364.19 782.754 L 364.19 782.754 Q 363.91 782.184 363.91 781.424 L 363.91 781.424 L 363.91 781.424 Q 363.91 780.664 364.19 780.094 L 364.19 780.094 L 364.19 780.094 Q 364.47 779.524 364.975 779.214 L 364.975 779.214 L 364.975 779.214 Q 365.48 778.904 366.15 778.904 L 366.15 778.904 L 366.15 778.904 Q 366.81 778.904 367.32 779.214 L 367.32 779.214 L 367.32 779.214 Q 367.83 779.524 368.105 780.094 L 368.105 780.094 L 368.105 780.094 Q 368.38 780.664 368.38 781.424 L 368.38 781.424 L 368.38 781.424 Q 368.38 782.184 368.105 782.754 L 368.105 782.754 L 368.105 782.754 Q 367.83 783.324 367.32 783.634 L 367.32 783.634 L 367.32 783.634 Q 366.81 783.944 366.15 783.944 L 366.15 783.944 L 366.15 783.944 Z  M 366.14 783.404 L 366.14 783.404 Q 366.91 783.404 367.33 782.894 L 367.33 782.894 L 367.33 782.894 Q 367.75 782.384 367.75 781.424 L 367.75 781.424 L 367.75 781.424 Q 367.75 780.484 367.325 779.959 L 367.325 779.959 L 367.325 779.959 Q 366.9 779.434 366.15 779.434 L 366.15 779.434 L 366.15 779.434 Q 365.39 779.434 364.97 779.959 L 364.97 779.959 L 364.97 779.959 Q 364.55 780.484 364.55 781.424 L 364.55 781.424 L 364.55 781.424 Q 364.55 782.384 364.96 782.894 L 364.96 782.894 L 364.96 782.894 Q 365.37 783.404 366.14 783.404 L 366.14 783.404 L 366.14 783.404 Z  M 373.23 779.024 L 373.84 779.024 L 373.84 783.594 L 373.84 783.594 Q 373.84 784.654 373.315 785.199 L 373.315 785.199 L 373.315 785.199 Q 372.79 785.744 371.76 785.744 L 371.76 785.744 L 371.76 785.744 Q 370.54 785.744 369.66 785.074 L 369.66 785.074 L 369.9 784.594 L 369.9 784.594 Q 370.39 784.934 370.805 785.069 L 370.805 785.069 L 370.805 785.069 Q 371.22 785.204 371.77 785.204 L 371.77 785.204 L 371.77 785.204 Q 372.5 785.204 372.87 784.814 L 372.87 784.814 L 372.87 784.814 Q 373.24 784.424 373.24 783.654 L 373.24 783.654 L 373.24 782.704 L 373.24 782.704 Q 373.03 783.194 372.595 783.459 L 372.595 783.459 L 372.595 783.459 Q 372.16 783.724 371.54 783.724 L 371.54 783.724 L 371.54 783.724 Q 370.9 783.724 370.405 783.424 L 370.405 783.424 L 370.405 783.424 Q 369.91 783.124 369.635 782.574 L 369.635 782.574 L 369.635 782.574 Q 369.36 782.024 369.36 781.314 L 369.36 781.314 L 369.36 781.314 Q 369.36 780.604 369.635 780.054 L 369.635 780.054 L 369.635 780.054 Q 369.91 779.504 370.405 779.204 L 370.405 779.204 L 370.405 779.204 Q 370.9 778.904 371.54 778.904 L 371.54 778.904 L 371.54 778.904 Q 372.15 778.904 372.58 779.159 L 372.58 779.159 L 372.58 779.159 Q 373.01 779.414 373.23 779.904 L 373.23 779.904 L 373.23 779.024 L 373.23 779.024 Z  M 371.62 783.184 L 371.62 783.184 Q 372.38 783.184 372.805 782.684 L 372.805 782.684 L 372.805 782.684 Q 373.23 782.184 373.23 781.314 L 373.23 781.314 L 373.23 781.314 Q 373.23 780.444 372.8 779.939 L 372.8 779.939 L 372.8 779.939 Q 372.37 779.434 371.62 779.434 L 371.62 779.434 L 371.62 779.434 Q 370.86 779.434 370.43 779.934 L 370.43 779.934 L 370.43 779.934 Q 370 780.434 370 781.314 L 370 781.314 L 370 781.314 Q 370 782.194 370.43 782.689 L 370.43 782.689 L 370.43 782.689 Q 370.86 783.184 371.62 783.184 L 371.62 783.184 L 371.62 783.184 Z  M 375.32 783.874 L 375.32 783.014 L 376.17 783.014 L 376.17 783.874 L 375.32 783.874 L 375.32 783.874 Z  M 301.07 778.904 L 301.07 778.904 Q 302.82 778.904 302.82 780.784 L 302.82 780.784 L 302.82 783.874 L 302.21 783.874 L 302.21 780.824 L 302.21 780.824 Q 302.21 780.104 301.92 779.774 L 301.92 779.774 L 301.92 779.774 Q 301.63 779.444 301 779.444 L 301 779.444 L 301 779.444 Q 300.28 779.444 299.845 779.884 L 299.845 779.884 L 299.845 779.884 Q 299.41 780.324 299.41 781.064 L 299.41 781.064 L 299.41 783.874 L 298.8 783.874 L 298.8 776.824 L 299.41 776.824 L 299.41 779.834 L 299.41 779.834 Q 299.64 779.384 300.075 779.144 L 300.075 779.144 L 300.075 779.144 Q 300.51 778.904 301.07 778.904 L 301.07 778.904 L 301.07 778.904 Z  M 306.38 783.424 L 306.38 783.424 Q 306.6 783.424 306.81 783.394 L 306.81 783.394 L 306.78 783.904 L 306.78 783.904 Q 306.56 783.934 306.31 783.934 L 306.31 783.934 L 306.31 783.934 Q 305.49 783.934 305.07 783.489 L 305.07 783.489 L 305.07 783.489 Q 304.65 783.044 304.65 782.274 L 304.65 782.274 L 304.65 779.514 L 303.69 779.514 L 303.69 779.024 L 304.65 779.024 L 304.65 777.524 L 305.26 777.524 L 305.26 779.024 L 306.68 779.024 L 306.68 779.514 L 305.26 779.514 L 305.26 782.194 L 305.26 782.194 Q 305.26 782.804 305.545 783.114 L 305.545 783.114 L 305.545 783.114 Q 305.83 783.424 306.38 783.424 L 306.38 783.424 L 306.38 783.424 Z  M 309.73 783.424 L 309.73 783.424 Q 309.95 783.424 310.16 783.394 L 310.16 783.394 L 310.13 783.904 L 310.13 783.904 Q 309.91 783.934 309.66 783.934 L 309.66 783.934 L 309.66 783.934 Q 308.84 783.934 308.42 783.489 L 308.42 783.489 L 308.42 783.489 Q 308 783.044 308 782.274 L 308 782.274 L 308 779.514 L 307.04 779.514 L 307.04 779.024 L 308 779.024 L 308 777.524 L 308.61 777.524 L 308.61 779.024 L 310.03 779.024 L 310.03 779.514 L 308.61 779.514 L 308.61 782.194 L 308.61 782.194 Q 308.61 782.804 308.895 783.114 L 308.895 783.114 L 308.895 783.114 Q 309.18 783.424 309.73 783.424 L 309.73 783.424 L 309.73 783.424 Z  M 313.31 778.904 L 313.31 778.904 Q 313.95 778.904 314.44 779.219 L 314.44 779.219 L 314.44 779.219 Q 314.93 779.534 315.2 780.109 L 315.2 780.109 L 315.2 780.109 Q 315.47 780.684 315.47 781.444 L 315.47 781.444 L 315.47 781.444 Q 315.47 782.194 315.2 782.759 L 315.2 782.759 L 315.2 782.759 Q 314.93 783.324 314.44 783.634 L 314.44 783.634 L 314.44 783.634 Q 313.95 783.944 313.31 783.944 L 313.31 783.944 L 313.31 783.944 Q 312.72 783.944 312.29 783.689 L 312.29 783.689 L 312.29 783.689 Q 311.86 783.434 311.64 782.944 L 311.64 782.944 L 311.64 785.674 L 311.03 785.674 L 311.03 779.024 L 311.64 779.024 L 311.64 779.904 L 311.64 779.904 Q 311.86 779.414 312.29 779.159 L 312.29 779.159 L 312.29 779.159 Q 312.72 778.904 313.31 778.904 L 313.31 778.904 L 313.31 778.904 Z  M 313.22 783.404 L 313.22 783.404 Q 313.99 783.404 314.415 782.889 L 314.415 782.889 L 314.415 782.889 Q 314.84 782.374 314.84 781.444 L 314.84 781.444 L 314.84 781.444 Q 314.84 780.494 314.415 779.964 L 314.415 779.964 L 314.415 779.964 Q 313.99 779.434 313.23 779.434 L 313.23 779.434 L 313.23 779.434 Q 312.47 779.434 312.055 779.954 L 312.055 779.954 L 312.055 779.954 Q 311.64 780.474 311.64 781.424 L 311.64 781.424 L 311.64 781.424 Q 311.64 782.374 312.05 782.889 L 312.05 782.889 L 312.05 782.889 Q 312.46 783.404 313.22 783.404 L 313.22 783.404 L 313.22 783.404 Z  M 318.34 783.944 L 318.34 783.944 Q 317.19 783.944 316.46 783.294 L 316.46 783.294 L 316.69 782.824 L 316.69 782.824 Q 317.08 783.144 317.47 783.279 L 317.47 783.279 L 317.47 783.279 Q 317.86 783.414 318.37 783.414 L 318.37 783.414 L 318.37 783.414 Q 318.96 783.414 319.275 783.204 L 319.275 783.204 L 319.275 783.204 Q 319.59 782.994 319.59 782.614 L 319.59 782.614 L 319.59 782.614 Q 319.59 782.294 319.38 782.099 L 319.38 782.099 L 319.38 782.099 Q 319.17 781.904 318.71 781.804 L 318.71 781.804 L 317.89 781.614 L 317.89 781.614 Q 317.3 781.474 316.965 781.129 L 316.965 781.129 L 316.965 781.129 Q 316.63 780.784 316.63 780.314 L 316.63 780.314 L 316.63 780.314 Q 316.63 779.684 317.12 779.294 L 317.12 779.294 L 317.12 779.294 Q 317.61 778.904 318.43 778.904 L 318.43 778.904 L 318.43 778.904 Q 318.94 778.904 319.385 779.069 L 319.385 779.069 L 319.385 779.069 Q 319.83 779.234 320.12 779.544 L 320.12 779.544 L 319.89 780.014 L 319.89 780.014 Q 319.55 779.714 319.195 779.574 L 319.195 779.574 L 319.195 779.574 Q 318.84 779.434 318.43 779.434 L 318.43 779.434 L 318.43 779.434 Q 317.88 779.434 317.57 779.654 L 317.57 779.654 L 317.57 779.654 Q 317.26 779.874 317.26 780.264 L 317.26 780.264 L 317.26 780.264 Q 317.26 780.584 317.455 780.784 L 317.455 780.784 L 317.455 780.784 Q 317.65 780.984 318.06 781.084 L 318.06 781.084 L 318.89 781.284 L 318.89 781.284 Q 320.21 781.584 320.21 782.584 L 320.21 782.584 L 320.21 782.584 Q 320.21 783.204 319.705 783.574 L 319.705 783.574 L 319.705 783.574 Q 319.2 783.944 318.34 783.944 L 318.34 783.944 L 318.34 783.944 Z  M 321.42 779.874 L 321.42 779.024 L 322.27 779.024 L 322.27 779.874 L 321.42 779.874 L 321.42 779.874 Z  M 321.42 783.874 L 321.42 783.014 L 322.27 783.014 L 322.27 783.874 L 321.42 783.874 L 321.42 783.874 Z " fill="rgb(113,113,113)"/></g></g><g><g><path d=" M 1529.191 1176.416 Q 1534.691 1137.959 1508.415 1113.256 Q 1534.22 1115.028 1556.317 1173.327 Q 1567.843 1197.877 1560.402 1221.948 C 1552.961 1246.018 1523.69 1214.873 1529.191 1176.416 Z " fill="rgb(54,204,0)"/><path d=" M 1527.834 1180.453 Q 1513.156 1144.485 1478 1136.438 Q 1501.165 1124.932 1549.685 1164.085 Q 1572.033 1179.451 1577.77 1203.984 C 1583.506 1228.516 1542.513 1216.422 1527.834 1180.453 Z " fill="rgb(54,204,0)"/><path d=" M 1588.007 1182.811 Q 1585.029 1147.297 1617.311 1134.37 Q 1587.557 1127.365 1557.159 1171.11 Q 1541.81 1188.795 1548.26 1212.349 C 1554.711 1235.903 1590.984 1218.325 1588.007 1182.811 Z " fill="rgb(54,204,0)"/><path d=" M 1576.875 1162.23 Q 1568.935 1127.487 1599.08 1110.151 Q 1568.637 1107.397 1544.689 1154.98 Q 1531.978 1174.647 1541.674 1197.061 C 1551.371 1219.475 1584.814 1196.973 1576.875 1162.23 Z " fill="rgb(54,204,0)"/></g><path d="M 1497.31 1170.2 L 1610.54 1170.2 L 1610.54 1267.4 C 1610.54 1281.198 1599.338 1292.4 1585.54 1292.4 L 1522.31 1292.4 C 1508.512 1292.4 1497.31 1281.198 1497.31 1267.4 L 1497.31 1170.2 Z" style="stroke:none;fill:#C9C8CC;stroke-miterlimit:10;"/><clipPath id="_clipPath_OrQg2tZqcPyWcCLjqEZr8KU0yLYBirQG"><path d="M 1497.31 1170.2 L 1610.54 1170.2 L 1610.54 1267.4 C 1610.54 1281.198 1599.338 1292.4 1585.54 1292.4 L 1522.31 1292.4 C 1508.512 1292.4 1497.31 1281.198 1497.31 1267.4 L 1497.31 1170.2 Z" style="stroke:none;fill:#C9C8CC;stroke-miterlimit:10;"/></clipPath><g clip-path="url(#_clipPath_OrQg2tZqcPyWcCLjqEZr8KU0yLYBirQG)"><rect x="1497.31" y="1163.272" width="113.229" height="121.991" transform="matrix(1,0,0,1,0,0)" fill="rgb(225,225,229)"/></g></g></g></svg>